#tb 0: 1/14
0,          0,          0,        1,   192000, 0x00000000
0,          1,          1,        1,   192000, 0x9c057d9c
0,          2,          2,        1,   192000, 0xab1aacaf
0,          3,          3,        1,   192000, 0x49a1dccd
0,          4,          4,        1,   192000, 0xebb7e245
0,          5,          5,        1,   192000, 0x6287759e
0,          6,          6,        1,   192000, 0xbf007410
0,          7,          7,        1,   192000, 0x6c72b247
0,          8,          8,        1,   192000, 0x4c26a8c3
0,          9,          9,        1,   192000, 0x99f06050
0,         10,         10,        1,   192000, 0x663f2d23
0,         11,         11,        1,   192000, 0x813c3a1f
0,         12,         12,        1,   192000, 0x6d6cfbe7
0,         13,         13,        1,   192000, 0x7b04163a
0,         14,         14,        1,   192000, 0x6792e679
0,         15,         15,        1,   192000, 0x939ac626
0,         16,         16,        1,   192000, 0xc7a139c0
0,         17,         17,        1,   192000, 0xcac7ef0c
0,         18,         18,        1,   192000, 0xf4ec59e0
0,         19,         19,        1,   192000, 0x56060f59
0,         20,         20,        1,   192000, 0xf45ecb3b
0,         21,         21,        1,   192000, 0xe7e634ff
0,         22,         22,        1,   192000, 0x7ac04aa4
0,         23,         23,        1,   192000, 0x4eaba5a1
0,         24,         24,        1,   192000, 0x89b84e25
0,         25,         25,        1,   192000, 0xc368ec1e
0,         26,         26,        1,   192000, 0xeeafb59e
0,         27,         27,        1,   192000, 0x0b630619
0,         28,         28,        1,   192000, 0x59cb8954
0,         29,         29,        1,   192000, 0x16b2875f
0,         30,         30,        1,   192000, 0x524e32bd
0,         31,         31,        1,   192000, 0x96000ba2
0,         32,         32,        1,   192000, 0x18ec28af
0,         33,         33,        1,   192000, 0x2609c56c
0,         34,         34,        1,   192000, 0xff25bb5a
0,         35,         35,        1,   192000, 0xb19a8819
0,         36,         36,        1,   192000, 0xa5ff8727
0,         37,         37,        1,   192000, 0xe83f6289
0,         38,         38,        1,   192000, 0xc6cb4903
0,         39,         39,        1,   192000, 0xa4d93eb5
0,         40,         40,        1,   192000, 0xec84ef6c
0,         41,         41,        1,   192000, 0x00000000
